<?xml version="1.0" encoding="UTF-8"?>
<!DOCTYPE svg PUBLIC "-//W3C//DTD SVG 1.1//EN" "http://www.w3.org/Graphics/SVG/1.1/DTD/svg11.dtd">
<!-- Creator: CorelDRAW 2020 (64-Bit) -->
<svg xmlns="http://www.w3.org/2000/svg" xml:space="preserve" width="1.09999in" height="0.199992in" version="1.1" style="shape-rendering:geometricPrecision; text-rendering:geometricPrecision; image-rendering:optimizeQuality; fill-rule:evenodd; clip-rule:evenodd"
viewBox="0 0 1099.99 199.99"
 xmlns:xlink="http://www.w3.org/1999/xlink"
 xmlns:xodm="http://www.corel.com/coreldraw/odm/2003">
 <defs>
  <style type="text/css">
   <![CDATA[
    .fil0 {fill:#121314}
    .fil1 {fill:#3C3E40}
   ]]>
  </style>
 </defs>
 <g id="Layer_x0020_1">
  <metadata id="CorelCorpID_0Corel-Layer"/>
  <path class="fil0" d="M982.85 43.76c20.24,-10.74 31.52,-3.54 43.47,14.42l42.8 62.77c5.97,9.05 6.31,8.77 6.31,20.2 0,8.91 -6.97,20.2 -14.93,20.88 -1.99,-7.89 -50.77,-76.58 -58.07,-87.87l-19.58 -30.4zm-75.32 73.04c12.28,0 24.56,0 37.16,0 15.93,0 23.23,-2.24 32.52,5.58 15.93,13.06 4.65,43.12 -17.59,43.12l-73 0c-14.6,0 -24.22,-12.04 -24.22,-28.97 0,-7.07 2.99,-10.41 5.97,-14.83 8.3,-12.44 45.46,-68.55 51.43,-74.74 10.95,-10.81 22.9,-9.72 35.17,-3.2 -1.33,6.19 -13.27,21.08 -17.59,27.61l-18.25 26.86c-2.65,4.08 -10.62,14.28 -11.61,18.56zm-66.04 18.57c0,14.15 2.32,25.44 11.94,35.64 4.98,5.51 16.26,14.21 26.22,14.21l86.94 0c17.59,0 38.16,-22.99 38.16,-39.44 0,-15.44 0.67,-29.58 -17.92,-42.23 -12.94,-8.91 -19.57,-7.62 -39.82,-7.62 1.66,-6.73 19.25,-27.2 20.91,-33.59l2.32 0c1,4.96 46.79,70.52 51.43,76.98l21.24 31.01c7.3,11.43 6.64,14.89 15.26,14.89 17.59,0 38.16,-23.33 38.16,-40.6 0,-21.22 -2.32,-26.11 -16.59,-44.88 -13.93,-18.77 -39.15,-63.45 -55.74,-75.01 -11.61,-7.89 -30.86,-8.43 -43.8,-3.2 -20.24,8.3 -2.32,8.3 -22.57,0 -20.57,-8.37 -43.8,-1.97 -56.74,15.64 -13.61,18.5 -28.87,44.07 -42.47,61.95 -3.65,5.04 -7.3,10.34 -10.62,15.85 -3.32,5.24 -6.31,12.58 -6.31,20.4z"/>
  <path class="fil0" d="M364 75.12c13.94,37.06 10.95,28.43 13.94,37.06l-25.55 0 11.61 -37.06zm-47.78 76.44c7.96,0 18.92,1.57 22.9,-2.58 2.65,-2.45 6.97,-14.83 7.3,-19.38l37.17 0c1,3.54 4.98,16.46 6.64,18.84 3.31,4.49 5.31,3.13 23.56,3.13 -0.33,-4.62 -15.6,-43.32 -18.58,-51.14l-13.94 -37.94c-1,-2.24 -1.66,-4.29 -2.65,-6.87 -2.66,-6.53 0.33,-4.83 -22.9,-4.83 -4.31,0 -9.95,20.61 -11.28,23.46 -3.65,9.59 -27.54,72.83 -28.21,77.32z"/>
  <path class="fil0" d="M53.42 73.89c11.28,38.29 0,0 11.28,38.29l-24.22 0c2.66,-8.5 0,0 12.94,-38.29zm-48.78 77.66c21.24,0 23.89,4.29 30.2,-21.96l36.83 0c0.33,3.13 4.98,17.28 6.3,19.24 3.65,4.69 16.59,2.72 23.89,2.72l-37.17 -100.78 -24.22 0c-0.33,5.51 -14.93,41.76 -17.92,50.26 -2.98,8.09 -17.92,45.5 -17.92,50.53z"/>
  <path class="fil0" d="M440.32 76.27c0,12.38 1,23.94 16.26,29.99 23.56,9.04 25.55,4.22 25.55,19.79 0,5.37 -7.3,7 -12.61,7 -10.95,0 -15.59,-8.16 -22.23,-8.16 -9.29,0 -8.63,14.89 -6.97,17.68 12.61,19.45 63.71,14.62 63.71,-21.15 0,-18.77 -5.31,-24.41 -25.55,-31.15 -31.19,-10.27 -11.94,-22.17 -5.64,-22.17 7.96,0 15.26,6.94 19.58,6.67 8.63,-0.61 11.28,-15.03 5.31,-18.84 -1.99,-1.43 -3.65,-2.24 -5.97,-3.26 -21.24,-8.84 -51.43,1.02 -51.43,23.6z"/>
  <path class="fil0" d="M124.1 69.27c16.26,0 27.54,-2.45 27.54,3.47l0 78.82c29.53,0 23.23,8.43 23.23,-41.69l0 -33.73c-0.67,-8.64 -5.64,-6.87 26.88,-6.87l0 -18.5 -77.65 0 0 18.5z"/>
  <polygon class="fil0" points="235.26,151.56 293.33,151.56 293.33,131.9 257.16,131.9 257.16,50.77 235.26,50.77 "/>
  <path class="fil1" d="M547.5 124.29l7.63 0c0,-0.2 0,-0.34 0,-0.55l-1 -39.37 15.6 37.68c0.33,0.88 0.66,1.63 1.33,2.24l5.64 0c1.33,-1.84 2.32,-4.49 3.31,-6.94l13.28 -32.98 0 39.92 6.97 0 0 -53.86c-11.61,0 -9.29,-0.75 -12.94,9.11l-13.61 34.96c-1,-4.28 -14.6,-36.72 -16.26,-44.07l-10.29 0 0 52.16c0,0.68 0,1.22 0.33,1.7z"/>
  <path class="fil1" d="M631.79 102.93c0,-12.52 -1,-26.66 14.93,-26.66 13.94,0 12.61,18.7 12.61,26.66 0,22.92 -27.54,21.9 -27.54,0zm12.61 23.12c8.63,0 12.94,-1.7 17.59,-7.89 9.29,-12.24 8.96,-48.9 -16.59,-48.9 -15.26,0 -21.57,13.94 -21.9,27.88 -0.33,11.97 5.31,28.91 20.91,28.91z"/>
  <path class="fil1" d="M708.11 119.12l-9.29 0 0 -42.85c11.61,0 24.56,0.41 24.56,19.65 0,10.27 -2.99,23.19 -15.26,23.19zm-16.26 6.94c10.28,0 22.23,0.81 29.2,-5.44 10.28,-9.11 8.96,-15.37 8.96,-28.16 0,-11.35 -9.29,-22.03 -20.57,-22.03l-17.59 0 0 55.63z"/>
  <path class="fil1" d="M754.56 122.59c0,2.72 0.67,3.47 3.32,3.47l27.87 0c4.31,0 3.65,-2.24 3.65,-6.94l-26.88 0 0 -18.57 22.23 0 0 -6.94 -22.23 0 0 -17.34 25.55 0 0 -5.85 -33.52 0 0 52.16z"/>
 </g>
</svg>
